<svg width="165" height="50" viewBox="0 0 165 50" fill="none" xmlns="http://www.w3.org/2000/svg">
<path d="M119.801 38.3606V41.7602C119.929 41.8564 120.489 41.8885 121.546 41.8885C124.972 41.8885 125.981 40.9584 126.974 38.2323L133.49 18.8932H130.592C129.535 18.8932 128.879 19.3903 128.623 20.3685L125.757 30.3748L122.475 18.9093H117.768L123.387 35.0573C124.044 37.2381 123.227 38.3767 120.954 38.3767H119.801V38.3606ZM109.314 32.0105C111.555 32.0105 112.708 30.4229 112.804 27.2318C112.804 23.8803 111.619 22.2287 109.25 22.2287C106.88 22.2287 105.76 23.8803 105.792 27.2318C105.92 30.4229 107.072 32.0105 109.314 32.0105ZM105.792 39.8199C105.792 41.1989 105.103 41.8885 103.726 41.8885H101.629V26.0772C101.853 21.1382 104.399 18.7008 109.362 18.7008C114.485 18.7008 117.031 21.475 117.031 27.0394C117.031 32.6679 114.854 35.5704 110.451 35.7308C108.385 35.7308 106.832 34.8809 105.776 33.165V39.8199H105.792ZM91.9743 32.0105C94.2158 32.0105 95.3686 30.4229 95.4647 27.2318C95.4647 23.8803 94.2799 22.2287 91.9103 22.2287C89.5407 22.2287 88.42 23.8803 88.452 27.2318C88.5641 30.4229 89.7168 32.0105 91.9743 32.0105ZM88.452 39.8199C88.452 41.1989 87.7635 41.8885 86.3866 41.8885H84.2892V26.0772C84.5133 21.1382 87.059 18.7008 92.0224 18.7008C97.1458 18.7008 99.6915 21.475 99.6915 27.0394C99.6915 32.6679 97.514 35.5704 93.1111 35.7308C91.0457 35.7308 89.4927 34.8809 88.436 33.165V39.8199H88.452ZM75.5314 22.0523C77.2445 22.0523 78.1251 22.5173 78.2211 23.4634C78.2211 24.3614 77.3085 24.9066 75.5314 25.1151C71.3526 25.516 68.4867 26.5904 68.3906 30.5512C68.3906 34.2074 71.1284 36.0515 75.0991 35.7308C79.566 35.4261 82.3039 33.3895 82.3039 28.8193V23.1908C82.2078 20.128 79.9023 18.6206 75.3392 18.6206C71.5287 18.6206 69.3832 20.128 68.8869 23.1908H73.0337C73.2578 22.4211 74.0584 22.0523 75.5314 22.0523ZM74.5547 32.3632C73.2418 32.3632 72.5534 31.7379 72.4573 30.4229C72.4573 29.2042 73.3059 28.4185 74.955 28.1138C76.1718 27.8572 77.2925 27.5205 78.2692 27.1196V28.643C78.2692 30.9842 76.8763 32.3632 74.5547 32.3632ZM49.2578 16.4558V35.4261H53.6608V26.0131H62.3706V35.4261H66.7735V14.1787H62.3706V22.1164H53.6608V14.1787H51.4353C50.2185 14.1787 49.2578 15.2371 49.2578 16.4558Z" fill="#2B2A29"/>
<path d="M162.725 14.1782H160.58V35.4255H164.727V16.1986C164.727 15.1082 163.814 14.1782 162.725 14.1782ZM151.182 22.0517C152.959 22.0517 153.984 23.1742 154.24 25.3711H148.028C148.348 23.1742 149.404 22.0517 151.182 22.0517ZM158.386 30.3582H155.328C154.768 30.3582 154.304 30.5506 153.919 30.9515C153.103 31.7373 152.206 32.1382 151.23 32.1382C149.196 32.1382 148.108 30.8553 147.947 28.3217H158.611C158.915 21.8593 156.465 18.6361 151.214 18.6361C146.186 18.6682 143.657 21.4744 143.657 27.1029C143.657 32.7315 146.154 35.634 151.15 35.7943C155.248 35.7943 157.49 33.854 158.386 30.3582ZM142.664 19.2935V18.8927H139.574V16.2628C139.574 15.1082 138.629 14.1621 137.477 14.1621H135.411V32.2184C135.379 34.0625 136.132 35.0246 137.685 35.185C139.238 35.3453 140.711 35.3453 142.056 35.217V32.058H140.775C139.958 32.058 139.558 31.6892 139.558 30.9996V21.8432H139.99C141.079 21.8432 142.056 21.4904 142.472 20.384C142.616 20.1114 142.664 19.6624 142.664 19.2935Z" fill="#BB2539"/>
<path fill-rule="evenodd" clip-rule="evenodd" d="M9.62243 0.000530278C13.7212 0.000530278 20.4136 -0.0155074 24.4643 0.128814C27.7145 0.241065 27.2502 0.208996 28.9633 2.42193C31.445 5.66115 37.7052 12.7329 37.6571 14.7534C37.449 24.8078 37.0648 29.9714 37.0327 40.3625C37.0167 45.6543 32.7098 50 27.4103 50H9.62243C4.3389 50 0 45.6704 0 40.3625V9.63802C0 4.33018 4.3389 0.000530278 9.62243 0.000530278Z" fill="#BB2539"/>
<path fill-rule="evenodd" clip-rule="evenodd" d="M12.0075 17.0464H25.2163C29.3951 17.0464 32.8214 20.478 32.8214 24.6634V37.3637C32.8214 41.549 29.3951 44.9806 25.2163 44.9806H12.0075C7.82869 44.9806 4.4024 41.549 4.4024 37.3637V24.6634C4.38639 20.478 7.81268 17.0464 12.0075 17.0464Z" fill="white"/>
<path fill-rule="evenodd" clip-rule="evenodd" d="M29.6665 30.9014C29.4743 36.7705 24.447 41.485 18.2668 41.485C12.1027 41.485 7.07533 36.7865 6.86719 30.9014H29.6665Z" fill="#BB2539"/>
<path fill-rule="evenodd" clip-rule="evenodd" d="M15.7881 27.2774C15.7241 25.1607 13.8988 23.4609 11.6733 23.4609C9.44786 23.4609 7.62264 25.1607 7.55859 27.2774H15.7881Z" fill="#BB2539"/>
<path fill-rule="evenodd" clip-rule="evenodd" d="M29.4951 27.1437C29.4311 25.0269 27.6059 23.3271 25.3804 23.3271C23.1549 23.3271 21.3297 25.0269 21.2656 27.1437H29.4951Z" fill="#BB2539"/>
<path fill-rule="evenodd" clip-rule="evenodd" d="M15.884 4.3623L9.67188 4.44248L13.3383 15.1704L15.884 4.3623Z" fill="white"/>
<path fill-rule="evenodd" clip-rule="evenodd" d="M7.10741 8.30664L3.29688 10.7761L11.0941 15.4105L7.10741 8.30664Z" fill="white"/>
<path fill-rule="evenodd" clip-rule="evenodd" d="M19.8378 7.90625L20.1901 8.09868L23.5843 10.0069L15.8672 15.0261L19.6617 8.243L19.8378 7.90625Z" fill="white"/>
</svg>
